<svg width="142" height="109" viewBox="0 0 142 109" fill="none" xmlns="http://www.w3.org/2000/svg">
<path fill-rule="evenodd" clip-rule="evenodd" d="M124.123 61.9056C120.428 88.0467 98.5433 108.125 72.0974 108.125C54.2878 108.125 38.5465 99.0194 29.0363 85.0881C26.826 81.8502 24.9522 78.3515 23.4673 74.6459C21.7802 70.4358 20.5952 65.9585 19.9888 61.2929C36.1621 47.96 61.823 32.6393 76.0787 24.8528C56.222 26.48 31.665 37.8286 20.3905 44.2277C24.8878 19.0655 46.3273 0 72.0974 0C83.6541 0 94.3399 3.83433 103.017 10.3333C105.669 12.3196 108.134 14.5549 110.378 17.0056C112.675 19.5135 114.741 22.2471 116.543 25.1706C119.203 29.4888 121.284 34.2212 122.675 39.2527C106.066 55.1848 82.4295 71.8625 67.3858 77.758C94.9375 75.3225 119.336 60.2285 123.806 57.4629C124.191 57.2247 124.428 57.0779 124.507 57.0386C124.423 57.9978 124.382 58.7151 124.346 59.347C124.295 60.2247 124.254 60.9377 124.123 61.9056Z" fill="#ECB704"/>
<path d="M103.018 10.3334L122.675 39.2527C121.285 34.2213 119.203 29.4888 116.543 25.1707C114.742 22.2472 112.675 19.5135 110.379 17.0056C108.134 14.5549 105.67 12.3197 103.018 10.3334Z" fill="#ECB704" stroke="#ECB704"/>
<path d="M23.5064 74.7215C24.1937 76.4256 27.5765 82.3319 29.1821 85.0721C29.134 85.0773 29.0856 85.0826 29.037 85.0881C26.8265 81.8501 24.9528 78.3515 23.4679 74.6459C23.4824 74.6685 23.4952 74.6936 23.5064 74.7215Z" fill="#ECB704" stroke="white"/>
<path fill-rule="evenodd" clip-rule="evenodd" d="M110.379 17.0056C108.134 14.5549 105.67 12.3196 103.018 10.3334L102.849 10.0851C154.693 -4.47144 146.588 16.3139 122.675 39.2527C121.285 34.2213 119.203 29.4888 116.543 25.1706C116.923 25.7054 117.22 26.1483 117.398 26.4527C118.324 28.0399 123.883 18.7765 122.854 15.541C122.079 13.1059 117.976 14.5047 114.02 15.8533C112.753 16.285 111.501 16.7116 110.379 17.0056Z" fill="#ECB704"/>
<path fill-rule="evenodd" clip-rule="evenodd" d="M29.3531 85.403C31.5974 87.8537 34.062 90.089 36.7141 92.0753L36.8828 92.3235C-14.9613 106.88 -3.89378 84.276 20.0192 61.3372C21.4098 66.3687 21.3268 70.2454 23.9871 74.5636C23.6075 74.0288 24.3301 75.0333 24.1525 74.7289C23.2267 73.1417 15.8487 83.6321 16.878 86.8677C17.6526 89.3027 21.7562 87.9039 25.7124 86.5554C26.979 86.1236 28.2306 85.697 29.3531 85.403Z" fill="#ECB704"/>
</svg>
